<svg width="180" height="48" viewBox="0 0 180 48" fill="none" xmlns="http://www.w3.org/2000/svg">
<path d="M0 2C0 0.895431 0.895431 0 2 0H178C179.105 0 180 0.895431 180 2V46C180 47.1046 179.105 48 178 48H2.00001C0.895436 48 0 47.1046 0 46V2Z" fill="white"/>
<path d="M54.1875 27.3887C54.1875 27.0013 54.0508 26.7051 53.7773 26.5C53.5039 26.2904 53.0117 26.0716 52.3008 25.8438C51.5898 25.6113 51.027 25.3835 50.6123 25.1602C49.4821 24.5495 48.917 23.7269 48.917 22.6924C48.917 22.1546 49.0674 21.6761 49.3682 21.2568C49.6735 20.833 50.1087 20.5026 50.6738 20.2656C51.2435 20.0286 51.8815 19.9102 52.5879 19.9102C53.2988 19.9102 53.9323 20.04 54.4883 20.2998C55.0443 20.555 55.4749 20.9173 55.7803 21.3867C56.0902 21.8561 56.2451 22.3893 56.2451 22.9863H54.1943C54.1943 22.5306 54.0508 22.1774 53.7637 21.9268C53.4766 21.6715 53.0732 21.5439 52.5537 21.5439C52.0524 21.5439 51.6628 21.651 51.3848 21.8652C51.1068 22.0749 50.9678 22.3529 50.9678 22.6992C50.9678 23.0228 51.1296 23.2939 51.4531 23.5127C51.7812 23.7314 52.262 23.9365 52.8955 24.1279C54.0622 24.4788 54.9121 24.9141 55.4453 25.4336C55.9785 25.9531 56.2451 26.6003 56.2451 27.375C56.2451 28.2363 55.9193 28.9131 55.2676 29.4053C54.6159 29.8929 53.7386 30.1367 52.6357 30.1367C51.8701 30.1367 51.1729 29.9977 50.5439 29.7197C49.915 29.4372 49.4342 29.0521 49.1016 28.5645C48.7734 28.0768 48.6094 27.5117 48.6094 26.8691H50.667C50.667 27.9674 51.3232 28.5166 52.6357 28.5166C53.1234 28.5166 53.5039 28.4186 53.7773 28.2227C54.0508 28.0221 54.1875 27.7441 54.1875 27.3887ZM67.7402 30H65.6895V25.7344H61.6904V30H59.6396V20.0469H61.6904V24.0801H65.6895V20.0469H67.7402V30ZM79.7139 25.249C79.7139 26.2288 79.5407 27.0879 79.1943 27.8262C78.848 28.5645 78.3512 29.1341 77.7041 29.5352C77.0615 29.9362 76.3232 30.1367 75.4893 30.1367C74.6644 30.1367 73.9284 29.9385 73.2812 29.542C72.6341 29.1455 72.1328 28.5804 71.7773 27.8467C71.4219 27.1084 71.2419 26.2607 71.2373 25.3037V24.8115C71.2373 23.8317 71.4128 22.9704 71.7637 22.2275C72.1191 21.4801 72.6182 20.9082 73.2607 20.5117C73.9079 20.1107 74.6462 19.9102 75.4756 19.9102C76.305 19.9102 77.041 20.1107 77.6836 20.5117C78.3307 20.9082 78.8298 21.4801 79.1807 22.2275C79.5361 22.9704 79.7139 23.8294 79.7139 24.8047V25.249ZM77.6357 24.7979C77.6357 23.7542 77.4489 22.9613 77.0752 22.4189C76.7015 21.8766 76.1683 21.6055 75.4756 21.6055C74.7874 21.6055 74.2565 21.8743 73.8828 22.4121C73.5091 22.9453 73.32 23.7292 73.3154 24.7637V25.249C73.3154 26.2653 73.5023 27.0537 73.876 27.6143C74.2497 28.1748 74.7874 28.4551 75.4893 28.4551C76.1774 28.4551 76.7061 28.1862 77.0752 27.6484C77.4443 27.1061 77.6312 26.3177 77.6357 25.2832V24.7979ZM85.2549 26.4932V30H83.2041V20.0469H87.0869C87.8343 20.0469 88.4906 20.1836 89.0557 20.457C89.6253 20.7305 90.0628 21.1201 90.3682 21.626C90.6735 22.1273 90.8262 22.6992 90.8262 23.3418C90.8262 24.3171 90.4912 25.0872 89.8213 25.6523C89.1559 26.2129 88.2331 26.4932 87.0527 26.4932H85.2549ZM85.2549 24.832H87.0869C87.6292 24.832 88.0417 24.7044 88.3242 24.4492C88.6113 24.194 88.7549 23.8294 88.7549 23.3555C88.7549 22.8678 88.6113 22.4736 88.3242 22.1729C88.0371 21.8721 87.6406 21.7171 87.1348 21.708H85.2549V24.832ZM102.407 20.0469L104.964 27.2656L107.507 20.0469H110.2V30H108.143V27.2793L108.348 22.583L105.661 30H104.253L101.573 22.5898L101.778 27.2793V30H99.7275V20.0469H102.407ZM119.979 25.6865H116.042V28.3525H120.663V30H113.991V20.0469H120.649V21.708H116.042V24.0801H119.979V25.6865ZM131.96 30H129.909L125.917 23.4512V30H123.866V20.0469H125.917L129.916 26.6094V20.0469H131.96V30Z" fill="#212A2F"/>
</svg>
