<svg width="180" height="48" viewBox="0 0 180 48" fill="none" xmlns="http://www.w3.org/2000/svg">
<path d="M0 2C0 0.895431 0.895431 0 2 0H178C179.105 0 180 0.895431 180 2V46C180 47.1046 179.105 48 178 48H2.00001C0.895436 48 0 47.1046 0 46V2Z" fill="white"/>
<path d="M40.7295 27.3887C40.7295 27.0013 40.5928 26.7051 40.3193 26.5C40.0459 26.2904 39.5537 26.0716 38.8428 25.8438C38.1318 25.6113 37.569 25.3835 37.1543 25.1602C36.0241 24.5495 35.459 23.7269 35.459 22.6924C35.459 22.1546 35.6094 21.6761 35.9102 21.2568C36.2155 20.833 36.6507 20.5026 37.2158 20.2656C37.7855 20.0286 38.4235 19.9102 39.1299 19.9102C39.8408 19.9102 40.4743 20.04 41.0303 20.2998C41.5863 20.555 42.0169 20.9173 42.3223 21.3867C42.6322 21.8561 42.7871 22.3893 42.7871 22.9863H40.7363C40.7363 22.5306 40.5928 22.1774 40.3057 21.9268C40.0186 21.6715 39.6152 21.5439 39.0957 21.5439C38.5944 21.5439 38.2048 21.651 37.9268 21.8652C37.6488 22.0749 37.5098 22.3529 37.5098 22.6992C37.5098 23.0228 37.6715 23.2939 37.9951 23.5127C38.3232 23.7314 38.804 23.9365 39.4375 24.1279C40.6042 24.4788 41.4541 24.9141 41.9873 25.4336C42.5205 25.9531 42.7871 26.6003 42.7871 27.375C42.7871 28.2363 42.4613 28.9131 41.8096 29.4053C41.1579 29.8929 40.2806 30.1367 39.1777 30.1367C38.4121 30.1367 37.7148 29.9977 37.0859 29.7197C36.457 29.4372 35.9762 29.0521 35.6436 28.5645C35.3154 28.0768 35.1514 27.5117 35.1514 26.8691H37.209C37.209 27.9674 37.8652 28.5166 39.1777 28.5166C39.6654 28.5166 40.0459 28.4186 40.3193 28.2227C40.5928 28.0221 40.7295 27.7441 40.7295 27.3887ZM54.2822 30H52.2314V25.7344H48.2324V30H46.1816V20.0469H48.2324V24.0801H52.2314V20.0469H54.2822V30ZM66.2559 25.249C66.2559 26.2288 66.0827 27.0879 65.7363 27.8262C65.39 28.5645 64.8932 29.1341 64.2461 29.5352C63.6035 29.9362 62.8652 30.1367 62.0312 30.1367C61.2064 30.1367 60.4704 29.9385 59.8232 29.542C59.1761 29.1455 58.6748 28.5804 58.3193 27.8467C57.9639 27.1084 57.7839 26.2607 57.7793 25.3037V24.8115C57.7793 23.8317 57.9548 22.9704 58.3057 22.2275C58.6611 21.4801 59.1602 20.9082 59.8027 20.5117C60.4499 20.1107 61.1882 19.9102 62.0176 19.9102C62.847 19.9102 63.583 20.1107 64.2256 20.5117C64.8727 20.9082 65.3717 21.4801 65.7227 22.2275C66.0781 22.9704 66.2559 23.8294 66.2559 24.8047V25.249ZM64.1777 24.7979C64.1777 23.7542 63.9909 22.9613 63.6172 22.4189C63.2435 21.8766 62.7103 21.6055 62.0176 21.6055C61.3294 21.6055 60.7985 21.8743 60.4248 22.4121C60.0511 22.9453 59.862 23.7292 59.8574 24.7637V25.249C59.8574 26.2653 60.0443 27.0537 60.418 27.6143C60.7917 28.1748 61.3294 28.4551 62.0312 28.4551C62.7194 28.4551 63.248 28.1862 63.6172 27.6484C63.9863 27.1061 64.1732 26.3177 64.1777 25.2832V24.7979ZM71.7969 26.4932V30H69.7461V20.0469H73.6289C74.3763 20.0469 75.0326 20.1836 75.5977 20.457C76.1673 20.7305 76.6048 21.1201 76.9102 21.626C77.2155 22.1273 77.3682 22.6992 77.3682 23.3418C77.3682 24.3171 77.0332 25.0872 76.3633 25.6523C75.6979 26.2129 74.7751 26.4932 73.5947 26.4932H71.7969ZM71.7969 24.832H73.6289C74.1712 24.832 74.5837 24.7044 74.8662 24.4492C75.1533 24.194 75.2969 23.8294 75.2969 23.3555C75.2969 22.8678 75.1533 22.4736 74.8662 22.1729C74.5791 21.8721 74.1826 21.7171 73.6768 21.708H71.7969V24.832ZM94.0215 27.1289L95.3613 20.0469H97.4053L95.1973 30H93.1328L91.5127 23.3418L89.8926 30H87.8281L85.6201 20.0469H87.6641L89.0107 27.1152L90.6514 20.0469H92.3877L94.0215 27.1289ZM108.695 25.249C108.695 26.2288 108.522 27.0879 108.176 27.8262C107.829 28.5645 107.333 29.1341 106.686 29.5352C106.043 29.9362 105.305 30.1367 104.471 30.1367C103.646 30.1367 102.91 29.9385 102.263 29.542C101.616 29.1455 101.114 28.5804 100.759 27.8467C100.403 27.1084 100.223 26.2607 100.219 25.3037V24.8115C100.219 23.8317 100.394 22.9704 100.745 22.2275C101.101 21.4801 101.6 20.9082 102.242 20.5117C102.889 20.1107 103.628 19.9102 104.457 19.9102C105.286 19.9102 106.022 20.1107 106.665 20.5117C107.312 20.9082 107.811 21.4801 108.162 22.2275C108.518 22.9704 108.695 23.8294 108.695 24.8047V25.249ZM106.617 24.7979C106.617 23.7542 106.43 22.9613 106.057 22.4189C105.683 21.8766 105.15 21.6055 104.457 21.6055C103.769 21.6055 103.238 21.8743 102.864 22.4121C102.491 22.9453 102.301 23.7292 102.297 24.7637V25.249C102.297 26.2653 102.484 27.0537 102.857 27.6143C103.231 28.1748 103.769 28.4551 104.471 28.4551C105.159 28.4551 105.688 28.1862 106.057 27.6484C106.426 27.1061 106.613 26.3177 106.617 25.2832V24.7979ZM114.865 20.0469L117.422 27.2656L119.965 20.0469H122.658V30H120.601V27.2793L120.806 22.583L118.119 30H116.711L114.031 22.5898L114.236 27.2793V30H112.186V20.0469H114.865ZM132.438 25.6865H128.5V28.3525H133.121V30H126.449V20.0469H133.107V21.708H128.5V24.0801H132.438V25.6865ZM144.418 30H142.367L138.375 23.4512V30H136.324V20.0469H138.375L142.374 26.6094V20.0469H144.418V30Z" fill="#212A2F"/>
</svg>
