<svg width="276" height="48" viewBox="0 0 276 48" fill="none" xmlns="http://www.w3.org/2000/svg">
<path d="M0 2C0 0.895431 0.895431 0 2 0H274C275.105 0 276 0.895431 276 2V46C276 47.1046 275.105 48 274 48H2C0.89543 48 0 47.1046 0 46V2Z" fill="white"/>
<path d="M88.7295 27.3887C88.7295 27.0013 88.5928 26.7051 88.3193 26.5C88.0459 26.2904 87.5537 26.0716 86.8428 25.8438C86.1318 25.6113 85.569 25.3835 85.1543 25.1602C84.0241 24.5495 83.459 23.7269 83.459 22.6924C83.459 22.1546 83.6094 21.6761 83.9102 21.2568C84.2155 20.833 84.6507 20.5026 85.2158 20.2656C85.7855 20.0286 86.4235 19.9102 87.1299 19.9102C87.8408 19.9102 88.4743 20.04 89.0303 20.2998C89.5863 20.555 90.0169 20.9173 90.3223 21.3867C90.6322 21.8561 90.7871 22.3893 90.7871 22.9863H88.7363C88.7363 22.5306 88.5928 22.1774 88.3057 21.9268C88.0186 21.6715 87.6152 21.5439 87.0957 21.5439C86.5944 21.5439 86.2048 21.651 85.9268 21.8652C85.6488 22.0749 85.5098 22.3529 85.5098 22.6992C85.5098 23.0228 85.6715 23.2939 85.9951 23.5127C86.3232 23.7314 86.804 23.9365 87.4375 24.1279C88.6042 24.4788 89.4541 24.9141 89.9873 25.4336C90.5205 25.9531 90.7871 26.6003 90.7871 27.375C90.7871 28.2363 90.4613 28.9131 89.8096 29.4053C89.1579 29.8929 88.2806 30.1367 87.1777 30.1367C86.4121 30.1367 85.7148 29.9977 85.0859 29.7197C84.457 29.4372 83.9762 29.0521 83.6436 28.5645C83.3154 28.0768 83.1514 27.5117 83.1514 26.8691H85.209C85.209 27.9674 85.8652 28.5166 87.1777 28.5166C87.6654 28.5166 88.0459 28.4186 88.3193 28.2227C88.5928 28.0221 88.7295 27.7441 88.7295 27.3887ZM102.282 30H100.231V25.7344H96.2324V30H94.1816V20.0469H96.2324V24.0801H100.231V20.0469H102.282V30ZM114.256 25.249C114.256 26.2288 114.083 27.0879 113.736 27.8262C113.39 28.5645 112.893 29.1341 112.246 29.5352C111.604 29.9362 110.865 30.1367 110.031 30.1367C109.206 30.1367 108.47 29.9385 107.823 29.542C107.176 29.1455 106.675 28.5804 106.319 27.8467C105.964 27.1084 105.784 26.2607 105.779 25.3037V24.8115C105.779 23.8317 105.955 22.9704 106.306 22.2275C106.661 21.4801 107.16 20.9082 107.803 20.5117C108.45 20.1107 109.188 19.9102 110.018 19.9102C110.847 19.9102 111.583 20.1107 112.226 20.5117C112.873 20.9082 113.372 21.4801 113.723 22.2275C114.078 22.9704 114.256 23.8294 114.256 24.8047V25.249ZM112.178 24.7979C112.178 23.7542 111.991 22.9613 111.617 22.4189C111.243 21.8766 110.71 21.6055 110.018 21.6055C109.329 21.6055 108.799 21.8743 108.425 22.4121C108.051 22.9453 107.862 23.7292 107.857 24.7637V25.249C107.857 26.2653 108.044 27.0537 108.418 27.6143C108.792 28.1748 109.329 28.4551 110.031 28.4551C110.719 28.4551 111.248 28.1862 111.617 27.6484C111.986 27.1061 112.173 26.3177 112.178 25.2832V24.7979ZM119.797 26.4932V30H117.746V20.0469H121.629C122.376 20.0469 123.033 20.1836 123.598 20.457C124.167 20.7305 124.605 21.1201 124.91 21.626C125.215 22.1273 125.368 22.6992 125.368 23.3418C125.368 24.3171 125.033 25.0872 124.363 25.6523C123.698 26.2129 122.775 26.4932 121.595 26.4932H119.797ZM119.797 24.832H121.629C122.171 24.832 122.584 24.7044 122.866 24.4492C123.153 24.194 123.297 23.8294 123.297 23.3555C123.297 22.8678 123.153 22.4736 122.866 22.1729C122.579 21.8721 122.183 21.7171 121.677 21.708H119.797V24.832ZM142.021 27.1289L143.361 20.0469H145.405L143.197 30H141.133L139.513 23.3418L137.893 30H135.828L133.62 20.0469H135.664L137.011 27.1152L138.651 20.0469H140.388L142.021 27.1289ZM156.695 25.249C156.695 26.2288 156.522 27.0879 156.176 27.8262C155.829 28.5645 155.333 29.1341 154.686 29.5352C154.043 29.9362 153.305 30.1367 152.471 30.1367C151.646 30.1367 150.91 29.9385 150.263 29.542C149.616 29.1455 149.114 28.5804 148.759 27.8467C148.403 27.1084 148.223 26.2607 148.219 25.3037V24.8115C148.219 23.8317 148.394 22.9704 148.745 22.2275C149.101 21.4801 149.6 20.9082 150.242 20.5117C150.889 20.1107 151.628 19.9102 152.457 19.9102C153.286 19.9102 154.022 20.1107 154.665 20.5117C155.312 20.9082 155.811 21.4801 156.162 22.2275C156.518 22.9704 156.695 23.8294 156.695 24.8047V25.249ZM154.617 24.7979C154.617 23.7542 154.43 22.9613 154.057 22.4189C153.683 21.8766 153.15 21.6055 152.457 21.6055C151.769 21.6055 151.238 21.8743 150.864 22.4121C150.491 22.9453 150.301 23.7292 150.297 24.7637V25.249C150.297 26.2653 150.484 27.0537 150.857 27.6143C151.231 28.1748 151.769 28.4551 152.471 28.4551C153.159 28.4551 153.688 28.1862 154.057 27.6484C154.426 27.1061 154.613 26.3177 154.617 25.2832V24.7979ZM162.865 20.0469L165.422 27.2656L167.965 20.0469H170.658V30H168.601V27.2793L168.806 22.583L166.119 30H164.711L162.031 22.5898L162.236 27.2793V30H160.186V20.0469H162.865ZM180.438 25.6865H176.5V28.3525H181.121V30H174.449V20.0469H181.107V21.708H176.5V24.0801H180.438V25.6865ZM192.418 30H190.367L186.375 23.4512V30H184.324V20.0469H186.375L190.374 26.6094V20.0469H192.418V30Z" fill="#212A2F"/>
</svg>
