<svg width="276" height="48" viewBox="0 0 276 48" fill="none" xmlns="http://www.w3.org/2000/svg">
<path d="M0 2C0 0.895431 0.895431 0 2 0H274C275.105 0 276 0.895431 276 2V46C276 47.1046 275.105 48 274 48H2C0.89543 48 0 47.1046 0 46V2Z" fill="white"/>
<path d="M102.188 27.3887C102.188 27.0013 102.051 26.7051 101.777 26.5C101.504 26.2904 101.012 26.0716 100.301 25.8438C99.5898 25.6113 99.027 25.3835 98.6123 25.1602C97.4821 24.5495 96.917 23.7269 96.917 22.6924C96.917 22.1546 97.0674 21.6761 97.3682 21.2568C97.6735 20.833 98.1087 20.5026 98.6738 20.2656C99.2435 20.0286 99.8815 19.9102 100.588 19.9102C101.299 19.9102 101.932 20.04 102.488 20.2998C103.044 20.555 103.475 20.9173 103.78 21.3867C104.09 21.8561 104.245 22.3893 104.245 22.9863H102.194C102.194 22.5306 102.051 22.1774 101.764 21.9268C101.477 21.6715 101.073 21.5439 100.554 21.5439C100.052 21.5439 99.6628 21.651 99.3848 21.8652C99.1068 22.0749 98.9678 22.3529 98.9678 22.6992C98.9678 23.0228 99.1296 23.2939 99.4531 23.5127C99.7812 23.7314 100.262 23.9365 100.896 24.1279C102.062 24.4788 102.912 24.9141 103.445 25.4336C103.979 25.9531 104.245 26.6003 104.245 27.375C104.245 28.2363 103.919 28.9131 103.268 29.4053C102.616 29.8929 101.739 30.1367 100.636 30.1367C99.8701 30.1367 99.1729 29.9977 98.5439 29.7197C97.915 29.4372 97.4342 29.0521 97.1016 28.5645C96.7734 28.0768 96.6094 27.5117 96.6094 26.8691H98.667C98.667 27.9674 99.3232 28.5166 100.636 28.5166C101.123 28.5166 101.504 28.4186 101.777 28.2227C102.051 28.0221 102.188 27.7441 102.188 27.3887ZM115.74 30H113.689V25.7344H109.69V30H107.64V20.0469H109.69V24.0801H113.689V20.0469H115.74V30ZM127.714 25.249C127.714 26.2288 127.541 27.0879 127.194 27.8262C126.848 28.5645 126.351 29.1341 125.704 29.5352C125.062 29.9362 124.323 30.1367 123.489 30.1367C122.664 30.1367 121.928 29.9385 121.281 29.542C120.634 29.1455 120.133 28.5804 119.777 27.8467C119.422 27.1084 119.242 26.2607 119.237 25.3037V24.8115C119.237 23.8317 119.413 22.9704 119.764 22.2275C120.119 21.4801 120.618 20.9082 121.261 20.5117C121.908 20.1107 122.646 19.9102 123.476 19.9102C124.305 19.9102 125.041 20.1107 125.684 20.5117C126.331 20.9082 126.83 21.4801 127.181 22.2275C127.536 22.9704 127.714 23.8294 127.714 24.8047V25.249ZM125.636 24.7979C125.636 23.7542 125.449 22.9613 125.075 22.4189C124.701 21.8766 124.168 21.6055 123.476 21.6055C122.787 21.6055 122.257 21.8743 121.883 22.4121C121.509 22.9453 121.32 23.7292 121.315 24.7637V25.249C121.315 26.2653 121.502 27.0537 121.876 27.6143C122.25 28.1748 122.787 28.4551 123.489 28.4551C124.177 28.4551 124.706 28.1862 125.075 27.6484C125.444 27.1061 125.631 26.3177 125.636 25.2832V24.7979ZM133.255 26.4932V30H131.204V20.0469H135.087C135.834 20.0469 136.491 20.1836 137.056 20.457C137.625 20.7305 138.063 21.1201 138.368 21.626C138.674 22.1273 138.826 22.6992 138.826 23.3418C138.826 24.3171 138.491 25.0872 137.821 25.6523C137.156 26.2129 136.233 26.4932 135.053 26.4932H133.255ZM133.255 24.832H135.087C135.629 24.832 136.042 24.7044 136.324 24.4492C136.611 24.194 136.755 23.8294 136.755 23.3555C136.755 22.8678 136.611 22.4736 136.324 22.1729C136.037 21.8721 135.641 21.7171 135.135 21.708H133.255V24.832ZM150.407 20.0469L152.964 27.2656L155.507 20.0469H158.2V30H156.143V27.2793L156.348 22.583L153.661 30H152.253L149.573 22.5898L149.778 27.2793V30H147.728V20.0469H150.407ZM167.979 25.6865H164.042V28.3525H168.663V30H161.991V20.0469H168.649V21.708H164.042V24.0801H167.979V25.6865ZM179.96 30H177.909L173.917 23.4512V30H171.866V20.0469H173.917L177.916 26.6094V20.0469H179.96V30Z" fill="#212A2F"/>
</svg>
